<svg width="146" height="19" viewBox="0 0 146 19" fill="none" xmlns="http://www.w3.org/2000/svg">
<path d="M6.776 18.24C5.416 18.24 4.16 18.072 3.008 17.736C1.872 17.384 0.896 16.904 0.08 16.296L1.04 13.872C1.584 14.256 2.152 14.584 2.744 14.856C3.336 15.112 3.968 15.312 4.64 15.456C5.312 15.584 6.024 15.648 6.776 15.648C8.04 15.648 8.952 15.44 9.512 15.024C10.072 14.608 10.352 14.064 10.352 13.392C10.352 12.8 10.16 12.352 9.776 12.048C9.392 11.728 8.704 11.464 7.712 11.256L5 10.704C3.448 10.384 2.288 9.848 1.52 9.096C0.752 8.344 0.368 7.336 0.368 6.072C0.368 5.016 0.648 4.096 1.208 3.312C1.768 2.528 2.552 1.92 3.56 1.488C4.568 1.056 5.744 0.839999 7.088 0.839999C8.288 0.839999 9.4 1.016 10.424 1.368C11.448 1.704 12.304 2.192 12.992 2.832L12.032 5.136C11.344 4.56 10.592 4.136 9.776 3.864C8.96 3.576 8.048 3.432 7.04 3.432C5.904 3.432 5.016 3.656 4.376 4.104C3.752 4.536 3.44 5.136 3.44 5.904C3.44 6.496 3.632 6.968 4.016 7.32C4.416 7.672 5.088 7.944 6.032 8.136L8.72 8.664C10.32 8.984 11.504 9.512 12.272 10.248C13.04 10.968 13.424 11.944 13.424 13.176C13.424 14.184 13.152 15.072 12.608 15.84C12.064 16.592 11.296 17.184 10.304 17.616C9.312 18.032 8.136 18.24 6.776 18.24ZM20.7808 18.24C19.7248 18.24 18.7968 17.992 17.9967 17.496C17.1968 16.984 16.5728 16.256 16.1248 15.312C15.6768 14.368 15.4528 13.24 15.4528 11.928C15.4528 10.616 15.6768 9.496 16.1248 8.568C16.5728 7.624 17.1968 6.904 17.9967 6.408C18.7968 5.896 19.7248 5.64 20.7808 5.64C21.8048 5.64 22.7008 5.896 23.4688 6.408C24.2528 6.904 24.7728 7.576 25.0288 8.424H24.7648L25.0288 5.88H27.9088C27.8608 6.376 27.8128 6.88 27.7648 7.392C27.7328 7.904 27.7168 8.408 27.7168 8.904V18H24.7408L24.7168 15.504H25.0048C24.7488 16.336 24.2288 17 23.4448 17.496C22.6608 17.992 21.7728 18.24 20.7808 18.24ZM21.6208 15.936C22.5648 15.936 23.3248 15.608 23.9008 14.952C24.4768 14.28 24.7648 13.272 24.7648 11.928C24.7648 10.584 24.4768 9.584 23.9008 8.928C23.3248 8.272 22.5648 7.944 21.6208 7.944C20.6768 7.944 19.9168 8.272 19.3408 8.928C18.7648 9.584 18.4768 10.584 18.4768 11.928C18.4768 13.272 18.7568 14.28 19.3168 14.952C19.8928 15.608 20.6608 15.936 21.6208 15.936ZM34.4184 18L29.1864 5.88H32.3784L36.1704 15.36H35.4264L39.3144 5.88H42.3144L37.0584 18H34.4184ZM43.9211 18V5.88H46.9211V18H43.9211ZM43.7531 3.6V0.671999H47.0891V3.6H43.7531ZM55.6509 18.24C54.4029 18.24 53.3229 17.984 52.4109 17.472C51.4989 16.96 50.7869 16.232 50.2749 15.288C49.7789 14.344 49.5309 13.224 49.5309 11.928C49.5309 10.632 49.7789 9.52 50.2749 8.592C50.7869 7.648 51.4989 6.92 52.4109 6.408C53.3229 5.896 54.4029 5.64 55.6509 5.64C56.8989 5.64 57.9789 5.896 58.8909 6.408C59.8189 6.92 60.5309 7.648 61.0269 8.592C61.5389 9.52 61.7949 10.632 61.7949 11.928C61.7949 13.224 61.5389 14.344 61.0269 15.288C60.5309 16.232 59.8189 16.96 58.8909 17.472C57.9789 17.984 56.8989 18.24 55.6509 18.24ZM55.6509 15.936C56.5949 15.936 57.3469 15.608 57.9069 14.952C58.4669 14.28 58.7469 13.272 58.7469 11.928C58.7469 10.584 58.4669 9.584 57.9069 8.928C57.3469 8.272 56.5949 7.944 55.6509 7.944C54.7069 7.944 53.9549 8.272 53.3949 8.928C52.8349 9.584 52.5549 10.584 52.5549 11.928C52.5549 13.272 52.8349 14.28 53.3949 14.952C53.9549 15.608 54.7069 15.936 55.6509 15.936ZM68.75 18.24C67.262 18.24 66.15 17.832 65.414 17.016C64.678 16.2 64.31 14.952 64.31 13.272V5.88H67.31V13.248C67.31 14.144 67.494 14.808 67.862 15.24C68.23 15.656 68.79 15.864 69.542 15.864C70.39 15.864 71.078 15.576 71.606 15C72.15 14.424 72.422 13.664 72.422 12.72V5.88H75.422V18H72.494V15.528H72.83C72.478 16.392 71.942 17.064 71.222 17.544C70.518 18.008 69.694 18.24 68.75 18.24ZM78.6549 18V8.976C78.6549 8.464 78.6389 7.944 78.6069 7.416C78.5909 6.888 78.5509 6.376 78.4869 5.88H81.3909L81.7269 9.192H81.2469C81.4069 8.392 81.6709 7.728 82.0389 7.2C82.4229 6.672 82.8869 6.28 83.4309 6.024C83.9749 5.768 84.5669 5.64 85.2069 5.64C85.4949 5.64 85.7269 5.656 85.9029 5.688C86.0789 5.704 86.2549 5.744 86.4309 5.808L86.4069 8.448C86.1029 8.32 85.8389 8.24 85.6149 8.208C85.4069 8.176 85.1429 8.16 84.8229 8.16C84.1349 8.16 83.5509 8.304 83.0709 8.592C82.6069 8.88 82.2549 9.28 82.0149 9.792C81.7909 10.304 81.6789 10.888 81.6789 11.544V18H78.6549ZM102.799 18.24C101.039 18.24 99.5267 17.888 98.2627 17.184C97.0147 16.464 96.0547 15.456 95.3827 14.16C94.7107 12.848 94.3747 11.304 94.3747 9.528C94.3747 7.752 94.7107 6.216 95.3827 4.92C96.0547 3.624 97.0147 2.624 98.2627 1.92C99.5267 1.2 101.039 0.839999 102.799 0.839999C103.983 0.839999 105.047 1.008 105.991 1.344C106.951 1.68 107.775 2.176 108.463 2.832L107.455 5.28C106.703 4.672 105.975 4.24 105.271 3.984C104.583 3.712 103.791 3.576 102.895 3.576C101.183 3.576 99.8707 4.096 98.9587 5.136C98.0627 6.16 97.6147 7.624 97.6147 9.528C97.6147 11.432 98.0627 12.904 98.9587 13.944C99.8707 14.984 101.183 15.504 102.895 15.504C103.791 15.504 104.583 15.376 105.271 15.12C105.975 14.848 106.703 14.4 107.455 13.776L108.463 16.224C107.775 16.864 106.951 17.36 105.991 17.712C105.047 18.064 103.983 18.24 102.799 18.24ZM115.375 18.24C114.319 18.24 113.391 17.992 112.59 17.496C111.791 16.984 111.167 16.256 110.719 15.312C110.271 14.368 110.047 13.24 110.047 11.928C110.047 10.616 110.271 9.496 110.719 8.568C111.167 7.624 111.791 6.904 112.59 6.408C113.391 5.896 114.319 5.64 115.375 5.64C116.399 5.64 117.295 5.896 118.063 6.408C118.847 6.904 119.367 7.576 119.623 8.424H119.359L119.623 5.88H122.503C122.455 6.376 122.407 6.88 122.359 7.392C122.327 7.904 122.311 8.408 122.311 8.904V18H119.335L119.311 15.504H119.599C119.343 16.336 118.823 17 118.039 17.496C117.255 17.992 116.367 18.24 115.375 18.24ZM116.215 15.936C117.159 15.936 117.919 15.608 118.495 14.952C119.071 14.28 119.359 13.272 119.359 11.928C119.359 10.584 119.071 9.584 118.495 8.928C117.919 8.272 117.159 7.944 116.215 7.944C115.271 7.944 114.511 8.272 113.935 8.928C113.359 9.584 113.071 10.584 113.071 11.928C113.071 13.272 113.351 14.28 113.911 14.952C114.487 15.608 115.255 15.936 116.215 15.936ZM125.553 18V8.976C125.553 8.464 125.537 7.944 125.505 7.416C125.489 6.888 125.449 6.376 125.385 5.88H128.289L128.625 9.192H128.145C128.305 8.392 128.569 7.728 128.937 7.2C129.321 6.672 129.785 6.28 130.329 6.024C130.873 5.768 131.465 5.64 132.105 5.64C132.393 5.64 132.625 5.656 132.801 5.688C132.977 5.704 133.153 5.744 133.329 5.808L133.305 8.448C133.001 8.32 132.737 8.24 132.513 8.208C132.305 8.176 132.041 8.16 131.721 8.16C131.033 8.16 130.449 8.304 129.969 8.592C129.505 8.88 129.153 9.28 128.913 9.792C128.689 10.304 128.577 10.888 128.577 11.544V18H125.553ZM140.668 18.24C138.636 18.24 137.044 17.68 135.892 16.56C134.74 15.44 134.164 13.904 134.164 11.952C134.164 10.688 134.412 9.584 134.908 8.64C135.404 7.696 136.092 6.96 136.972 6.432C137.868 5.904 138.908 5.64 140.092 5.64C141.26 5.64 142.236 5.888 143.02 6.384C143.804 6.88 144.396 7.576 144.796 8.472C145.212 9.368 145.42 10.416 145.42 11.616V12.408H136.588V10.824H143.284L142.876 11.16C142.876 10.04 142.636 9.184 142.156 8.592C141.692 8 141.012 7.704 140.116 7.704C139.124 7.704 138.356 8.056 137.812 8.76C137.284 9.464 137.02 10.448 137.02 11.712V12.024C137.02 13.336 137.34 14.32 137.98 14.976C138.636 15.616 139.556 15.936 140.74 15.936C141.428 15.936 142.068 15.848 142.66 15.672C143.268 15.48 143.844 15.176 144.388 14.76L145.276 16.776C144.7 17.24 144.012 17.6 143.212 17.856C142.412 18.112 141.564 18.24 140.668 18.24Z" fill="#462E6A"/>
</svg>
